<?xml version="1.0" encoding="utf-8"?>
<!-- Generator: Adobe Illustrator 23.0.4, SVG Export Plug-In . SVG Version: 6.00 Build 0)  -->
<svg version="1.1" id="Layer_1" xmlns="http://www.w3.org/2000/svg" xmlns:xlink="http://www.w3.org/1999/xlink" x="0px" y="0px"
	 viewBox="0 0 159 53" style="enable-background:new 0 0 159 53;" xml:space="preserve">
<style type="text/css">
	.st0{fill:none;stroke:#FFFFFF;stroke-width:2.5585;stroke-miterlimit:10;}
	.st1{fill:#FFFFFF;}
</style>
<path class="st0" d="M130.9,51.2h-104c-14.3,0-25.8-11.1-25.8-25s11.4-25,25.8-25h104.2c14.1,0,25.8,11.1,25.8,25
	C156.9,39.8,145.4,51.2,130.9,51.2z"/>
<g>
	<path class="st1" d="M30.4,17h2v12.3H39V31h-8.6V17z"/>
	<path class="st1" d="M47.5,28.2h2c-0.3,1.1-0.8,1.8-1.7,2.4c-0.8,0.5-1.7,0.8-2.9,0.8c-1.6,0-2.9-0.5-3.7-1.6
		C40.4,28.9,40,27.6,40,26c0-1.8,0.5-3.2,1.6-4.2c0.9-0.8,2-1.2,3.3-1.2c1.6,0,2.8,0.5,3.6,1.6c0.8,0.9,1.2,2.4,1.2,4.2H42
		c0.1,1.2,0.4,2.1,1.1,2.6c0.5,0.5,1.2,0.7,2,0.7c0.7,0,1.2-0.1,1.7-0.5C47.1,29,47.3,28.6,47.5,28.2z M44.8,22.1
		c-0.8,0-1.5,0.3-2,0.8s-0.8,1.2-0.9,2h5.7c0-0.9-0.4-1.7-0.9-2.2C46.3,22.4,45.6,22.1,44.8,22.1z"/>
	<path class="st1" d="M53.1,23.7h-2c0.1-1.1,0.5-1.8,1.5-2.4c0.8-0.5,1.7-0.8,2.9-0.8c1.5,0,2.5,0.4,3.2,1.1s0.9,1.5,0.9,2.4v6.9H58
		l-0.3-1.3c-0.8,1.1-2,1.7-3.4,1.7c-1.2,0-2.1-0.3-2.8-0.9c-0.5-0.5-0.8-1.2-0.8-2c0-1.1,0.4-1.7,1.1-2.4c0.7-0.5,1.6-0.8,2.8-1.1
		l2.9-0.5v-0.5c0-0.7-0.3-1.2-0.7-1.5S55.9,22,55.1,22C54.1,22.1,53.3,22.7,53.1,23.7z M54.9,29.8c0.8,0,1.5-0.3,2.1-0.8
		c0.5-0.5,0.8-1.1,0.8-1.7V26l-2.5,0.4c-0.9,0.1-1.6,0.4-1.8,0.7c-0.3,0.3-0.4,0.7-0.4,1.1c0,0.5,0.1,0.9,0.5,1.2
		C53.8,29.7,54.2,29.8,54.9,29.8z"/>
	<path class="st1" d="M63.8,31.1H62V21h1.6l0.3,1.5c0.5-1.2,1.5-1.8,2.6-1.8c0.4,0,0.8,0,1.1,0.1v1.8c-0.4-0.1-0.8-0.1-1.2-0.1
		c-0.8,0-1.3,0.3-1.7,0.9C64.2,24,64,24.8,64,26L63.8,31.1z"/>
	<path class="st1" d="M70.4,31.1h-1.8V21h1.6l0.3,1.3c0.8-1.1,1.8-1.6,3-1.6s2.1,0.4,2.8,1.1c0.5,0.7,0.8,1.6,0.8,2.8v6.6h-1.8v-6.6
		c0-1.5-0.7-2.2-2.1-2.2c-0.8,0-1.3,0.3-1.8,0.8c-0.4,0.5-0.7,1.1-0.7,1.8L70.4,31.1z"/>
	<path class="st1" d="M86.7,31.1h-1.8V21h1.6l0.1,1.2c0.7-1.1,1.7-1.5,3-1.5c1.5,0,2.4,0.5,3,1.6c0.7-1.1,1.7-1.6,3.3-1.6
		c1.2,0,2,0.4,2.6,1.1c0.5,0.7,0.8,1.5,0.8,2.6v6.7h-2v-6.6c0-1.5-0.7-2.2-2-2.2c-0.8,0-1.5,0.3-1.8,0.9c-0.4,0.5-0.5,1.1-0.5,1.7
		v6.2h-1.8v-6.6c0-1.5-0.7-2.2-2-2.2c-0.8,0-1.3,0.3-1.8,0.9c-0.4,0.5-0.7,1.1-0.7,1.7L86.7,31.1z"/>
	<path class="st1" d="M100.9,26c0-1.8,0.5-3.3,1.7-4.2c0.9-0.8,2-1.2,3.3-1.2c1.6,0,2.8,0.5,3.7,1.5s1.3,2.2,1.3,3.8
		c0,1.8-0.5,3.3-1.6,4.2c-0.9,0.8-2,1.2-3.4,1.2c-1.6,0-2.8-0.5-3.7-1.6C101.5,28.9,100.9,27.6,100.9,26z M102.9,26
		c0,1.3,0.4,2.2,1.1,3c0.5,0.5,1.2,0.9,2.1,0.9s1.7-0.4,2.2-1.1s0.8-1.6,0.8-2.8c0-1.3-0.3-2.4-0.9-3c-0.5-0.5-1.2-0.8-2.1-0.8
		s-1.7,0.4-2.2,1.1C103.2,24,102.9,24.9,102.9,26z"/>
	<path class="st1" d="M114.7,31.1h-1.8V21h1.6l0.3,1.5c0.5-1.2,1.5-1.8,2.6-1.8c0.4,0,0.8,0,1.1,0.1v1.8c-0.4-0.1-0.8-0.1-1.2-0.1
		c-0.8,0-1.3,0.3-1.7,0.9s-0.7,1.5-0.7,2.6L114.7,31.1z"/>
	<path class="st1" d="M126.2,28.2h2c-0.3,1.1-0.8,1.8-1.7,2.4c-0.8,0.5-1.7,0.8-2.9,0.8c-1.6,0-2.9-0.5-3.7-1.6
		c-0.8-0.9-1.2-2.2-1.2-3.8c0-1.8,0.5-3.2,1.6-4.2c0.9-0.8,2-1.2,3.3-1.2c1.6,0,2.8,0.5,3.6,1.6c0.8,0.9,1.2,2.4,1.2,4.2h-7.8
		c0.1,1.2,0.4,2.1,1.1,2.6c0.5,0.5,1.2,0.7,2,0.7c0.7,0,1.2-0.1,1.7-0.5C125.8,29,126,28.6,126.2,28.2z M123.5,22.1
		c-0.8,0-1.5,0.3-2,0.8s-0.8,1.2-0.9,2h5.8c0-0.9-0.4-1.7-0.9-2.2C125,22.4,124.3,22.1,123.5,22.1z"/>
</g>
</svg>
